# 3ds Max Wavefront OBJ Exporter v0.97b - (c)2007 guruware
# File Created: 19.11.2017 15:04:15

#
# object Box001
#

v  -0.5000 0.0000 0.5000
v  -0.5000 0.0000 -0.5000
v  0.5000 0.0000 -0.5000
v  0.5000 0.0000 0.5000
v  -0.5000 1.0000 0.5000
v  0.5000 1.0000 0.5000
v  -0.0000 1.0000 0.0000
v  -0.0000 0.5000 1.5000
v  0.5000 1.0000 -0.5000
v  1.5000 0.5000 -0.0000
v  -0.5000 1.0000 -0.5000
v  -0.0000 0.5000 -1.5000
v  -1.5000 0.5000 -0.0000
# 13 vertices

vn 0.0000 -1.0000 -0.0000
vn 0.0000 1.0000 -0.0000
vn 0.5774 -0.5774 0.5774
vn 0.5774 0.5774 0.5774
vn 0.0000 0.0000 1.0000
vn 0.5774 -0.5774 -0.5774
vn 0.5774 0.5774 -0.5774
vn 1.0000 0.0000 -0.0000
vn -0.5774 -0.5774 -0.5774
vn -0.5774 0.5774 -0.5774
vn 0.0000 0.0000 -1.0000
vn -0.5774 -0.5774 0.5774
vn -0.5774 0.5774 0.5774
vn -1.0000 0.0000 -0.0000
# 14 vertex normals

vt 1.0000 0.0000 0.0000
vt 1.0000 1.0000 0.0000
vt 0.0000 1.0000 0.0000
vt 0.0000 0.0000 0.0000
vt 0.5000 0.5000 0.0000
# 5 texture coords

g Box001
f 1/1/1 2/2/1 3/3/1 
f 3/3/1 4/4/1 1/1/1 
f 5/4/2 6/1/2 7/5/2 
f 4/1/3 6/2/4 8/5/5 
f 3/1/6 9/2/7 10/5/8 
f 2/1/9 11/2/10 12/5/11 
f 1/1/12 5/2/13 13/5/14 
f 1/4/12 4/1/3 8/5/5 
f 6/2/4 5/3/13 8/5/5 
f 8/5/5 5/3/13 1/4/12 
f 11/3/2 5/4/2 7/5/2 
f 6/1/2 9/2/2 7/5/2 
f 7/5/2 9/2/2 11/3/2 
f 2/4/9 1/1/12 13/5/14 
f 5/2/13 11/3/10 13/5/14 
f 13/5/14 11/3/10 2/4/9 
f 4/4/3 3/1/6 10/5/8 
f 9/2/7 6/3/4 10/5/8 
f 10/5/8 6/3/4 4/4/3 
f 3/4/6 2/1/9 12/5/11 
f 11/2/10 9/3/7 12/5/11 
f 12/5/11 9/3/7 3/4/6 
# 22 faces

